<?xml version="1.0" standalone="no"?>
<!DOCTYPE svg PUBLIC "-//W3C//DTD SVG 20010904//EN"
 "http://www.w3.org/TR/2001/REC-SVG-20010904/DTD/svg10.dtd">
<svg version="1.0" xmlns="http://www.w3.org/2000/svg"
 width="700.000000pt" height="700.000000pt" viewBox="0 0 700.000000 700.000000"
 preserveAspectRatio="xMidYMid meet">
<metadata>
Created by potrace 1.14, written by Peter Selinger 2001-2017
</metadata>
<g transform="translate(0.000000,700.000000) scale(0.100000,-0.100000)"
fill="#000000" stroke="none">
<path d="M879 6996 c-2 -2 -24 -6 -49 -9 -185 -24 -393 -130 -540 -277 -128
-128 -206 -264 -258 -450 l-27 -95 0 -2645 c0 -1455 3 -2665 7 -2690 56 -357
309 -655 661 -779 156 -54 30 -52 2867 -48 1438 2 2630 6 2649 10 107 22 250
78 351 138 141 84 297 262 368 421 44 98 50 116 72 223 20 99 20 126 17 2730
-1 1447 -6 2644 -10 2660 -42 164 -92 292 -136 351 -9 12 -23 32 -31 44 -119
179 -319 319 -552 387 l-93 28 -2646 2 c-1455 2 -2647 1 -2650 -1z"/>
</g>
</svg>
